<svg viewBox="0 0 64 64" xmlns="http://www.w3.org/2000/svg" role="img" aria-label="Laravel Horizon">
  <rect width="64" height="64" rx="12" fill="#B13BC7"/>
  <path d="M19.0086 47.2138C19.0032 47.2138 18.998 47.2118 18.9939 47.2083C16.7972 45.3315 15.0341 43.0002 13.8266 40.3753C12.6179 37.7479 11.9947 34.8893 12 31.9972C12 26.4722 14.2418 21.4723 17.8585 17.8556C25.5254 10.1915 37.9016 10.0307 45.766 17.4915C53.6296 24.9531 54.118 37.3205 46.8661 45.3779C39.6161 53.4341 27.2702 54.25 19.0233 47.2192C19.0192 47.2157 19.014 47.2138 19.0086 47.2138ZM17.3894 33.2305C17.391 33.2305 17.3925 33.2299 17.3937 33.2289C19.6011 31.2708 21.1681 28.6639 25.3338 28.6639C32.0006 28.6639 32.0006 35.3305 38.6675 35.3305C44.634 35.3305 46.9114 26.6482 42.9261 22.2078C39.9599 18.9027 35.5337 16.9786 30.7673 17.3806C22.6965 18.0613 16.7056 25.1546 17.383 33.2246C17.3833 33.2279 17.3861 33.2305 17.3894 33.2305Z" fill="#FDFDFC"/>
</svg>
