<svg xmlns="http://www.w3.org/2000/svg" viewBox="0 0 920 280" role="img" aria-labelledby="title desc">
  <title id="title">Architecture Decisions Platform</title>
  <desc id="desc">React SPA connects to Express API, SQLite database, and OpenAI. Docker Compose runs the monorepo locally.</desc>
  <defs>
    <style>
      .box { fill: #fafaf9; stroke: #78716c; stroke-width: 1.5; }
      .title { font: 600 15px "Source Sans 3", sans-serif; fill: #1c1917; }
      .sub { font: 400 12px "Source Sans 3", sans-serif; fill: #57534e; }
      .arrow { stroke: #57534e; stroke-width: 1.5; fill: none; marker-end: url(#arrowhead); }
    </style>
    <marker id="arrowhead" markerWidth="8" markerHeight="8" refX="7" refY="3" orient="auto">
      <polygon points="0 0, 8 3, 0 6" fill="#57534e" />
    </marker>
  </defs>
  <rect class="box" x="20" y="90" width="170" height="90" rx="6" />
  <text class="title" x="105" y="125" text-anchor="middle">React SPA</text>
  <text class="sub" x="105" y="148" text-anchor="middle">Vite + TypeScript</text>
  <text class="sub" x="105" y="165" text-anchor="middle">Zustand state</text>

  <rect class="box" x="260" y="90" width="170" height="90" rx="6" />
  <text class="title" x="345" y="125" text-anchor="middle">Express API</text>
  <text class="sub" x="345" y="148" text-anchor="middle">Node.js 24 LTS</text>
  <text class="sub" x="345" y="165" text-anchor="middle">Service layer</text>

  <rect class="box" x="500" y="55" width="170" height="70" rx="6" />
  <text class="title" x="585" y="88" text-anchor="middle">SQLite</text>
  <text class="sub" x="585" y="108" text-anchor="middle">Decision records</text>

  <rect class="box" x="500" y="145" width="170" height="70" rx="6" />
  <text class="title" x="585" y="178" text-anchor="middle">OpenAI</text>
  <text class="sub" x="585" y="198" text-anchor="middle">ADR generation</text>

  <rect class="box" x="740" y="90" width="160" height="90" rx="6" />
  <text class="title" x="820" y="125" text-anchor="middle">Docker Compose</text>
  <text class="sub" x="820" y="148" text-anchor="middle">Monorepo dev</text>
  <text class="sub" x="820" y="165" text-anchor="middle">Frontend + backend</text>

  <line class="arrow" x1="190" y1="135" x2="258" y2="135" />
  <line class="arrow" x1="430" y1="120" x2="498" y2="90" />
  <line class="arrow" x1="430" y1="150" x2="498" y2="180" />
  <line class="arrow" x1="670" y1="135" x2="738" y2="135" />
</svg>
